<?xml version="1.0" encoding="utf-8"?>
<!-- Generator: Adobe Illustrator 18.1.1, SVG Export Plug-In . SVG Version: 6.00 Build 0)  -->
<svg version="1.1" id="Layer_1" xmlns="http://www.w3.org/2000/svg" xmlns:xlink="http://www.w3.org/1999/xlink" x="0px" y="0px"
	 viewBox="0 0 1054.7 772" enable-background="new 0 0 1054.7 772" xml:space="preserve">
<path fill="#A3DADA" d="M492.7,308c29,20.5,63.2,21,92,16.9c24.9-3.6,57.4-18.7,70.5-30.6l49.6,31.6l-9.7-37.2l15.3-40.7l-56,28.8
	c-20-18.4-57.4-37.5-82.9-40c-24.3-2.4-47.5,0.4-76.5,13.7c-15.9,8.3-30,16.3-42.2,23.9C465.5,288,477.5,297,492.7,308z"/>
<path fill="#A3DADA" d="M229.3,134c29,20.5,63.2,21,92,16.9c24.9-3.6,57.4-18.7,70.5-30.6l49.6,31.6l-9.7-37.2L447,73.9l-56,28.8
	c-20-18.4-57.4-37.5-82.9-40c-24.3-2.4-47.5,0.4-76.5,13.7c-15.9,8.3-30,16.3-42.2,23.9C202.1,114,214,123,229.3,134z"/>
<path fill="#A3DADA" d="M229.3,491.6c29,20.5,63.2,21,92,16.9c24.9-3.6,57.4-18.7,70.5-30.6l49.6,31.6l-9.7-37.2l15.3-40.7l-56,28.8
	c-20-18.4-57.4-37.5-82.9-40c-24.3-2.4-47.5,0.4-76.5,13.7c-15.9,8.3-30,16.3-42.2,23.9C202.1,471.6,214,480.6,229.3,491.6z"/>
<path fill="#A3DADA" d="M743.7,134c29,20.5,63.2,21,92,16.9c24.9-3.6,57.4-18.7,70.5-30.6l49.6,31.6l-9.7-37.2l15.3-40.7l-56,28.8
	c-20-18.4-57.4-37.5-82.9-40C798.2,60.2,775,63,746,76.4c-15.9,8.3-30,16.3-42.2,23.9C716.5,114,728.5,123,743.7,134z"/>
<path fill="#A3DADA" d="M743.7,491.6c29,20.5,63.2,21,92,16.9c24.9-3.6,57.4-18.7,70.5-30.6l49.6,31.6l-9.7-37.2l15.3-40.7l-56,28.8
	c-20-18.4-57.4-37.5-82.9-40c-24.3-2.4-47.5,0.4-76.5,13.7c-15.9,8.3-30,16.3-42.2,23.9C716.5,471.6,728.5,480.6,743.7,491.6z"/>
<path fill="#A3DADA" d="M-89.3,308c29,20.5,63.2,21,92,16.9c24.9-3.6,57.4-18.7,70.5-30.6l49.6,31.6l-9.7-37.2l15.3-40.7l-56,28.8
	c-20-18.4-57.4-37.5-82.9-40c-24.3-2.4-47.5,0.4-76.5,13.7c-15.9,8.3-30,16.3-42.2,23.9C-116.5,288-104.6,297-89.3,308z"/>
<path fill="#A3DADA" d="M963.7,308c29,20.5,63.2,21,92,16.9c24.9-3.6,57.4-18.7,70.5-30.6l49.6,31.6l-9.7-37.2l15.3-40.7l-56,28.8
	c-20-18.4-57.4-37.5-82.9-40c-24.3-2.4-47.5,0.4-76.5,13.7c-15.9,8.3-30,16.3-42.2,23.9C936.5,288,948.5,297,963.7,308z"/>
<path fill="#A3DADA" d="M492.7,672.5c29,20.5,63.2,21,92,16.9c24.9-3.6,57.4-18.7,70.5-30.6l49.6,31.6l-9.7-37.2l15.3-40.7l-56,28.8
	c-20-18.4-57.4-37.5-82.9-40c-24.3-2.4-47.5,0.4-76.5,13.7c-15.9,8.3-30,16.3-42.2,23.9C465.6,652.5,477.5,661.5,492.7,672.5z"/>
<path fill="#A3DADA" d="M-89.3,672.5c29,20.5,63.2,21,92,16.9c24.9-3.6,57.4-18.7,70.5-30.6l49.6,31.6l-9.7-37.2l15.3-40.7l-56,28.8
	c-20-18.4-57.4-37.5-82.9-40c-24.3-2.4-47.5,0.4-76.5,13.7c-15.9,8.3-30,16.3-42.2,23.9C-116.4,652.5-104.5,661.5-89.3,672.5z"/>
<path fill="#A3DADA" d="M963.7,672.5c29,20.5,63.2,21,92,16.9c24.9-3.6,57.4-18.7,70.5-30.6l49.6,31.6l-9.7-37.2l15.3-40.7l-56,28.8
	c-20-18.4-57.4-37.5-82.9-40c-24.3-2.4-47.5,0.4-76.5,13.7c-15.9,8.3-30,16.3-42.2,23.9C936.6,652.5,948.5,661.5,963.7,672.5z"/>
</svg>
